# xmcd CD database file
#
# Track frame offsets:
#	150
#	17954
#	35208
#	58379
#	87583
#
# Disc length: 4440 seconds
#
# Revision: 0
# Processed by: cddbd v1.5.1PL0 Copyright (c) Steve Scherf et al.
# Submitted via: CDex 1.51
#
DISCID=48115605
DTITLE=森田クラブ - モンスーン・アジアの葦の舟
DYEAR=2004
DGENRE=JPop
TTITLE0=モンスーン・アジアの葦の舟
TTITLE1=トキメキ無常
TTITLE2=シャツに口笛
TTITLE3=モンスーン・アジアの葦の舟〜instrumental〜
TTITLE4=CCCD
EXTD=YEAR: 2004
EXTT0=
EXTT1=
EXTT2=
EXTT3=
EXTT4=
PLAYORDER=
